<?xml version="1.0" encoding="UTF-8" standalone="no"?>
<!-- Generator: Adobe Illustrator 16.0.0, SVG Export Plug-In . SVG Version: 6.00 Build 0)  -->

<svg
   version="1.1"
   id="Capa_1"
   x="0px"
   y="0px"
   width="548.291px"
   height="548.291px"
   viewBox="0 0 548.291 548.291"
   style="enable-background:new 0 0 548.291 548.291;"
   xml:space="preserve"
   sodipodi:docname="icon.svg"
   inkscape:version="1.1 (c68e22c387, 2021-05-23)"
   xmlns:inkscape="http://www.inkscape.org/namespaces/inkscape"
   xmlns:sodipodi="http://sodipodi.sourceforge.net/DTD/sodipodi-0.dtd"
   xmlns="http://www.w3.org/2000/svg"
   xmlns:svg="http://www.w3.org/2000/svg"><defs
   id="defs43" /><sodipodi:namedview
   id="namedview41"
   pagecolor="#ffffff"
   bordercolor="#666666"
   borderopacity="1.0"
   inkscape:pageshadow="2"
   inkscape:pageopacity="0.0"
   inkscape:pagecheckerboard="0"
   showgrid="false"
   inkscape:zoom="1.5922201"
   inkscape:cx="274.45953"
   inkscape:cy="274.14551"
   inkscape:window-width="2400"
   inkscape:window-height="1421"
   inkscape:window-x="4791"
   inkscape:window-y="1036"
   inkscape:window-maximized="1"
   inkscape:current-layer="Capa_1" />
<g
   id="g8"
   style="fill:#1758b9;fill-opacity:1">
	<path
   d="M486.201,196.121h-13.166v-63.525c0-0.399-0.062-0.795-0.115-1.2c-0.021-2.522-0.825-5-2.552-6.96L364.657,3.675   c-0.033-0.031-0.064-0.042-0.085-0.073c-0.63-0.704-1.364-1.292-2.143-1.796c-0.229-0.157-0.461-0.286-0.702-0.419   c-0.672-0.365-1.387-0.672-2.121-0.893c-0.2-0.052-0.379-0.134-0.577-0.188C358.23,0.118,357.401,0,356.562,0H96.757   C84.894,0,75.256,9.649,75.256,21.502v174.613H62.092c-16.971,0-30.732,13.756-30.732,30.73v159.81   c0,16.966,13.761,30.736,30.732,30.736h13.164V526.79c0,11.854,9.638,21.501,21.501,21.501h354.776   c11.853,0,21.501-9.647,21.501-21.501V417.392h13.166c16.966,0,30.729-13.764,30.729-30.731v-159.81   C516.93,209.877,503.167,196.121,486.201,196.121z M96.757,21.507h249.054v110.006c0,5.94,4.817,10.751,10.751,10.751h94.972   v53.861H96.757V21.507z M367.547,335.847c7.843,0,16.547-1.701,21.666-3.759l3.916,20.301c-4.768,2.376-15.509,4.949-29.493,4.949   c-39.748,0-60.204-24.73-60.204-57.472c0-39.226,27.969-61.055,62.762-61.055c13.465,0,23.705,2.737,28.31,5.119l-5.285,20.64   c-5.287-2.226-12.615-4.263-21.832-4.263c-20.641,0-36.663,12.444-36.663,38.027C330.718,321.337,344.362,335.847,367.547,335.847z    M291.647,296.97c0,37.685-22.854,60.537-56.444,60.537c-34.113,0-54.066-25.759-54.066-58.495   c0-34.447,21.995-60.206,55.94-60.206C272.39,238.806,291.647,265.248,291.647,296.97z M67.72,355.124V242.221   c9.552-1.532,21.999-2.375,35.13-2.375c21.83,0,35.981,3.916,47.055,12.276c11.945,8.863,19.455,23.021,19.455,43.311   c0,21.994-8.017,37.181-19.105,46.556c-12.111,10.058-30.528,14.841-53.045,14.841C83.749,356.825,74.198,355.968,67.72,355.124z    M451.534,520.968H96.757V417.392h354.776V520.968z M471.245,355.627l-10.409-20.804c-4.263-8.012-6.992-13.99-10.231-20.636   h-0.342c-2.388,6.656-5.28,12.624-8.861,20.636l-9.552,20.804h-29.675l33.254-58.158l-32.054-56.786h29.849l10.058,20.984   c3.413,6.979,5.963,12.614,8.694,19.092h0.335c2.729-7.332,4.955-12.446,7.843-19.092l9.721-20.984h29.683l-32.406,56.103   l34.105,58.841H471.245z"
   id="path2"
   style="fill:#1758b9;fill-opacity:1" />
	<path
   d="M141.729,296.277c0.165-23.869-13.814-36.494-36.15-36.494c-5.807,0-9.552,0.514-11.772,1.027v75.2   c2.226,0.509,5.806,0.509,9.047,0.509C126.388,336.698,141.729,323.743,141.729,296.277z"
   id="path4"
   style="fill:#1758b9;fill-opacity:1" />
	<path
   d="M208.604,298.493c0,22.515,10.575,38.372,27.969,38.372c17.567,0,27.617-16.703,27.617-39.045   c0-20.641-9.885-38.377-27.801-38.377C218.827,259.448,208.604,276.162,208.604,298.493z"
   id="path6"
   style="fill:#1758b9;fill-opacity:1" />
</g>
<g
   id="g10">
</g>
<g
   id="g12">
</g>
<g
   id="g14">
</g>
<g
   id="g16">
</g>
<g
   id="g18">
</g>
<g
   id="g20">
</g>
<g
   id="g22">
</g>
<g
   id="g24">
</g>
<g
   id="g26">
</g>
<g
   id="g28">
</g>
<g
   id="g30">
</g>
<g
   id="g32">
</g>
<g
   id="g34">
</g>
<g
   id="g36">
</g>
<g
   id="g38">
</g>
<g
   id="g10166"
   transform="matrix(5.457865,0,0,5.1445812,132.09512,27.658772)"
   style="fill:#000080"><g
     id="g10110"
     style="fill:#000080">
	<g
   id="g10108"
   style="fill:#000080">
		<path
   d="M 18.73,16.686 17.017,16.481 C 16.841,15.827 16.584,15.21 16.254,14.637 l 1.063,-1.354 c 0.164,-0.209 0.145,-0.531 -0.043,-0.718 l -1.766,-1.767 c -0.187,-0.187 -0.509,-0.206 -0.717,-0.044 l -1.356,1.067 C 12.864,11.491 12.247,11.234 11.594,11.06 L 11.39,9.345 C 11.359,9.083 11.117,8.868 10.853,8.868 H 8.354 C 8.09,8.868 7.848,9.083 7.817,9.345 L 7.611,11.059 C 6.958,11.233 6.34,11.491 5.769,11.821 L 4.412,10.756 C 4.205,10.593 3.882,10.611 3.696,10.798 l -1.767,1.769 c -0.187,0.187 -0.206,0.509 -0.043,0.717 l 1.065,1.354 C 2.62,15.21 2.365,15.828 2.19,16.482 L 0.477,16.687 C 0.215,16.718 0,16.959 0,17.225 v 2.498 c 0,0.265 0.215,0.506 0.477,0.536 l 1.714,0.207 c 0.175,0.651 0.431,1.269 0.761,1.841 l -1.064,1.354 c -0.163,0.21 -0.144,0.532 0.043,0.719 l 1.765,1.767 c 0.186,0.188 0.509,0.207 0.716,0.045 l 1.357,-1.068 c 0.571,0.33 1.189,0.588 1.842,0.762 L 7.817,27.6 c 0.031,0.262 0.273,0.477 0.537,0.477 h 2.499 c 0.264,0 0.506,-0.215 0.537,-0.477 l 0.206,-1.715 c 0.653,-0.174 1.271,-0.432 1.843,-0.762 l 1.356,1.064 c 0.208,0.162 0.53,0.145 0.716,-0.041 l 1.767,-1.77 c 0.187,-0.188 0.207,-0.51 0.043,-0.717 l -1.065,-1.354 c 0.331,-0.572 0.586,-1.19 0.761,-1.844 l 1.715,-0.205 c 0.263,-0.031 0.477,-0.271 0.477,-0.537 v -2.498 c 0,-0.264 -0.215,-0.503 -0.479,-0.535 z m -9.125,6.585 c -2.651,0 -4.801,-2.148 -4.801,-4.801 0,-2.652 2.15,-4.802 4.801,-4.802 2.652,0 4.801,2.149 4.801,4.802 10e-4,2.653 -2.149,4.801 -4.801,4.801 z"
   id="path10104"
   style="fill:#000080" />
		<path
   d="M 30.641,8.804 29.35,8.651 C 29.218,8.159 29.026,7.692 28.776,7.261 l 0.803,-1.02 C 29.702,6.086 29.686,5.842 29.546,5.701 L 28.216,4.372 C 28.076,4.23 27.833,4.216 27.676,4.339 L 26.655,5.142 C 26.225,4.893 25.759,4.701 25.27,4.571 L 25.114,3.281 C 25.092,3.083 24.909,2.922 24.712,2.922 H 22.83 c -0.199,0 -0.381,0.161 -0.404,0.359 l -0.154,1.29 C 21.78,4.701 21.315,4.894 20.884,5.143 L 19.863,4.341 C 19.707,4.219 19.464,4.234 19.324,4.372 l -1.331,1.332 c -0.142,0.141 -0.155,0.383 -0.032,0.539 l 0.803,1.021 C 18.514,7.694 18.323,8.16 18.19,8.652 L 16.9,8.806 c -0.198,0.023 -0.359,0.206 -0.359,0.405 v 1.881 c 0,0.197 0.162,0.381 0.359,0.402 l 1.289,0.157 c 0.133,0.49 0.326,0.955 0.574,1.386 l -0.803,1.02 c -0.122,0.156 -0.107,0.4 0.033,0.54 l 1.328,1.329 c 0.141,0.143 0.383,0.156 0.539,0.033 l 1.021,-0.804 c 0.43,0.249 0.896,0.442 1.387,0.572 l 0.155,1.292 c 0.022,0.195 0.206,0.356 0.404,0.356 h 1.881 c 0.198,0 0.38,-0.161 0.403,-0.356 l 0.154,-1.292 c 0.492,-0.13 0.957,-0.323 1.387,-0.572 l 1.021,0.802 c 0.157,0.123 0.399,0.109 0.54,-0.031 l 1.33,-1.332 c 0.141,-0.139 0.155,-0.382 0.032,-0.538 l -0.802,-1.021 c 0.25,-0.429 0.44,-0.895 0.572,-1.386 l 1.291,-0.154 C 30.834,11.47 30.995,11.29 30.995,11.09 V 9.21 C 30.999,9.009 30.837,8.829 30.641,8.804 Z m -6.87,4.96 c -1.998,0 -3.615,-1.618 -3.615,-3.614 0,-1.997 1.619,-3.614 3.615,-3.614 1.994,0 3.613,1.617 3.613,3.614 0,1.995 -1.618,3.614 -3.613,3.614 z"
   id="path10106"
   style="fill:#000080" />
	</g>
</g><g
     id="g10112"
     style="fill:#000080">
</g><g
     id="g10114"
     style="fill:#000080">
</g><g
     id="g10116"
     style="fill:#000080">
</g><g
     id="g10118"
     style="fill:#000080">
</g><g
     id="g10120"
     style="fill:#000080">
</g><g
     id="g10122"
     style="fill:#000080">
</g><g
     id="g10124"
     style="fill:#000080">
</g><g
     id="g10126"
     style="fill:#000080">
</g><g
     id="g10128"
     style="fill:#000080">
</g><g
     id="g10130"
     style="fill:#000080">
</g><g
     id="g10132"
     style="fill:#000080">
</g><g
     id="g10134"
     style="fill:#000080">
</g><g
     id="g10136"
     style="fill:#000080">
</g><g
     id="g10138"
     style="fill:#000080">
</g><g
     id="g10140"
     style="fill:#000080">
</g></g></svg>
